<svg xmlns="http://www.w3.org/2000/svg" width="135" height="46" fill="none"><g clip-path="url(#a)"><path fill="#ffa00f" d="M.3.3h133.6v45.5H.3z"/><path stroke="url(#b)" stroke-linecap="round" stroke-width=".5" d="M.3.3h133.6v45.5H.3z" style="mix-blend-mode:darken"/><path fill="url(#c)" fill-opacity=".3" d="M0 0h134.1v46H0z" style="mix-blend-mode:overlay"/><path fill="url(#d)" fill-opacity=".6" d="M0 0h134.1v46H0z" style="mix-blend-mode:overlay"/><g fill="#000" filter="url(#e)"><path fill-opacity=".2" d="M25.3 32.4q-2.6 0-4.6-1.1a7 7 0 0 1-3-3q-1-2.1-1-4.8t1-4.7a7 7 0 0 1 3-3.1 9 9 0 0 1 4.6-1.1q2.8 0 4.7 1 2 1.1 3 3.2 1 2 1 4.7t-1 4.7a7 7 0 0 1-3 3.1q-1.9 1-4.7 1m0-3.8a3.4 3.4 0 0 0 3.4-2.3q.5-1.2.5-2.8t-.5-2.8q-.4-1-1.3-1.7t-2-.7a3.4 3.4 0 0 0-3.4 2.4q-.5 1.2-.5 2.8t.5 2.8q.4 1 1.3 1.7t2 .6m16 3.4-4.6-17h4.9L44 25.5 46.7 15h3.8L53 25.5 55.6 15h4.8l-4.6 17H51l-2.4-9.4-2.4 9.4zm23.2 0V15h4.7l5.7 9.6V15h4.7v17h-4.7l-5.7-9.1V32zm20.2 0V15h12.7v3.7h-8v2.9h7.7v3.7h-7.7v3h8.2V32zm17.7 0V15h6.3q4.2 0 6.6 2.2t2.3 6.3-2.3 6.3-6.5 2.2zm4.7-3.8h1.6q2.1 0 3-1.1 1-1.2 1-3.6t-1-3.6-3-1.2H107z" style="mix-blend-mode:color-burn"/><path fill-opacity=".3" d="M25.3 32.4q-2.6 0-4.6-1.1a7 7 0 0 1-3-3q-1-2.1-1-4.8t1-4.7a7 7 0 0 1 3-3.1 9 9 0 0 1 4.6-1.1q2.8 0 4.7 1 2 1.1 3 3.2 1 2 1 4.7t-1 4.7a7 7 0 0 1-3 3.1q-1.9 1-4.7 1m0-3.8a3.4 3.4 0 0 0 3.4-2.3q.5-1.2.5-2.8t-.5-2.8q-.4-1-1.3-1.7t-2-.7a3.4 3.4 0 0 0-3.4 2.4q-.5 1.2-.5 2.8t.5 2.8q.4 1 1.3 1.7t2 .6m16 3.4-4.6-17h4.9L44 25.5 46.7 15h3.8L53 25.5 55.6 15h4.8l-4.6 17H51l-2.4-9.4-2.4 9.4zm23.2 0V15h4.7l5.7 9.6V15h4.7v17h-4.7l-5.7-9.1V32zm20.2 0V15h12.7v3.7h-8v2.9h7.7v3.7h-7.7v3h8.2V32zm17.7 0V15h6.3q4.2 0 6.6 2.2t2.3 6.3-2.3 6.3-6.5 2.2zm4.7-3.8h1.6q2.1 0 3-1.1 1-1.2 1-3.6t-1-3.6-3-1.2H107z" style="mix-blend-mode:darken"/></g></g><defs><linearGradient id="b" x1="67.1" x2="67.1" y1="0" y2="46" gradientUnits="userSpaceOnUse"><stop stop-opacity="0"/><stop offset="1" stop-opacity=".2"/></linearGradient><linearGradient id="c" x1="67.1" x2="67.1" y1="0" y2="46" gradientUnits="userSpaceOnUse"><stop stop-color="#fff"/><stop offset="1" stop-color="#fff" stop-opacity="0"/></linearGradient><radialGradient id="d" cx="0" cy="0" r="1" gradientTransform="matrix(0 38 -67 0 67 8)" gradientUnits="userSpaceOnUse"><stop stop-color="#fff"/><stop offset="1" stop-color="#fff" stop-opacity="0"/></radialGradient><clipPath id="a"><path fill="#fff" d="M0 0h134.1v46H0z"/></clipPath><filter id="e" width="100.9" height="18.8" x="16.7" y="14.6" color-interpolation-filters="sRGB" filterUnits="userSpaceOnUse"><feFlood flood-opacity="0" result="BackgroundImageFix"/><feBlend in="SourceGraphic" in2="BackgroundImageFix" result="shape"/><feColorMatrix in="SourceAlpha" result="hardAlpha" values="0 0 0 0 0 0 0 0 0 0 0 0 0 0 0 0 0 0 127 0"/><feOffset dy="1"/><feGaussianBlur stdDeviation="1"/><feComposite in2="hardAlpha" k2="-1" k3="1" operator="arithmetic"/><feColorMatrix values="0 0 0 0 0 0 0 0 0 0 0 0 0 0 0 0 0 0 0.24 0"/><feBlend in2="shape" mode="darken" result="effect1_innerShadow_2002_1538"/></filter></defs></svg>